<?xml version="1.0" encoding="UTF-8"?>
<svg version="1.1" xmlns="http://www.w3.org/2000/svg" width="512" height="512">
<path d="M0 0 C1.01201477 0.00054382 2.02402954 0.00108765 3.06671143 0.00164795 C19.59530572 0.04238044 35.52913999 0.94575778 51.75 4.375 C52.79188477 4.59462402 53.83376953 4.81424805 54.90722656 5.04052734 C86.74321559 11.98468488 117.43650145 24.62228449 144.375 43.0625 C145.04184814 43.51657227 145.70869629 43.97064453 146.39575195 44.43847656 C149.2310592 46.41841766 151.68000997 48.30196182 154.08203125 50.80859375 C160.0488686 57.01897548 165.83710564 57.01595083 174.0625 57.1875 C176.27990869 57.21439427 178.49736132 57.23790632 180.71484375 57.2578125 C194.0500036 57.3931532 205.51158165 61.29768738 215.5 70.375 C226.15495666 81.75686573 228.87918615 95.13405554 228.8828125 110.26171875 C228.88473099 111.0546785 228.88664948 111.84763824 228.8886261 112.66462708 C228.89131385 115.94924824 228.89052996 119.23222559 228.82910156 122.51635742 C228.62526756 134.9514747 230.89261902 143.579577 236.77911377 154.50326538 C239.08963421 158.95762981 240.70406261 163.71576973 242.375 168.4375 C242.93501709 170.01168701 242.93501709 170.01168701 243.50634766 171.61767578 C249.46120068 188.77985442 253.4388407 206.36820195 255.75 224.375 C255.83732895 225.04220566 255.9246579 225.70941132 256.01463318 226.39683533 C256.71087491 232.11320476 256.92456164 237.75242632 256.953125 243.5078125 C256.96018463 244.45416061 256.96724426 245.40050873 256.97451782 246.37553406 C257.20241099 285.89152112 257.20241099 285.89152112 253.75 302.375 C253.45198486 303.83728027 253.45198486 303.83728027 253.14794922 305.32910156 C243.02732806 353.7109774 221.1108123 397.69928269 186.75 433.375 C186.11787598 434.03435547 185.48575195 434.69371094 184.83447266 435.37304688 C175.69002521 444.86130305 166.39265991 453.6012044 155.75 461.375 C154.59894983 462.23306152 153.44790823 463.09113451 152.296875 463.94921875 C144.10724019 469.98677396 135.60461724 475.36957302 126.75 480.375 C126.04278809 480.7771875 125.33557617 481.179375 124.60693359 481.59375 C98.45939144 496.31504051 69.43833558 506.01421333 39.75 510.375 C38.54537109 510.55232666 37.34074219 510.72965332 36.09960938 510.91235352 C24.44232646 512.511325 12.87813902 512.7334053 1.125 512.6875 C-0.32983292 512.68476578 -0.32983292 512.68476578 -1.8140564 512.68197632 C-16.16556055 512.63658309 -30.12942918 512.1312347 -44.25 509.375 C-45.14702637 509.21402832 -46.04405273 509.05305664 -46.96826172 508.88720703 C-90.57311969 500.99694853 -131.70990471 481.30735057 -165.25 452.375 C-165.99507813 451.74078125 -166.74015625 451.1065625 -167.5078125 450.453125 C-181.01279833 438.64198485 -193.68418743 425.89139772 -204.25 411.375 C-205.10649066 410.22505169 -205.96326433 409.07531411 -206.8203125 407.92578125 C-212.8609414 399.73410474 -218.22005071 391.21854922 -223.25 382.375 C-223.61448242 381.74319824 -223.97896484 381.11139648 -224.35449219 380.46044922 C-245.96034998 342.71217428 -255.72698095 299.94560003 -255.5625 256.75 C-255.56034485 255.73209381 -255.5581897 254.71418762 -255.55596924 253.66543579 C-255.50629854 239.05636477 -255.25540191 224.72424147 -252.25 210.375 C-252.05132324 209.40014648 -251.85264648 208.42529297 -251.64794922 207.42089844 C-246.69266579 183.73204538 -239.07702026 161.02904053 -228.25 139.375 C-228.11694041 136.67301084 -228.0399379 133.9926705 -228.00390625 131.2890625 C-227.9709173 129.61848534 -227.93770665 127.94791255 -227.90429688 126.27734375 C-227.85727756 123.65351963 -227.81295009 121.02970621 -227.77319336 118.40576172 C-227.49102316 100.64762505 -226.79132929 84.26408885 -214.1875 70.4375 C-203.33187231 60.50812041 -190.38931642 57.18535844 -176.04101562 57.30322266 C-164.32397654 57.6424238 -164.32397654 57.6424238 -154.25 52.5 C-153.46238281 51.68402344 -152.67476563 50.86804687 -151.86328125 50.02734375 C-148.67887776 46.79534081 -145.25200876 44.48920008 -141.4375 42.0625 C-140.72021729 41.60512451 -140.00293457 41.14774902 -139.26391602 40.67651367 C-96.9228373 14.10586606 -50.00977243 -0.10129442 0 0 Z " fill="#888E93" transform="translate(255.25,-0.375)"/>
<path d="M0 0 C2.16113085 -0.010738 4.32226359 -0.02110493 6.48339844 -0.03100586 C7.89186665 -0.04391033 7.89186665 -0.04391033 9.32878876 -0.0570755 C23.10828851 -0.09660278 34.96927185 3.63813327 45.32910156 13.05297852 C58.16327243 26.76273016 58.9060832 43.2454428 58.71777344 61.06738281 C58.70810344 62.70432114 58.69937173 64.34126525 58.69152069 65.97821331 C58.67360098 69.35114325 58.64971358 72.7239475 58.62045288 76.09679794 C58.58030202 80.7377302 58.55410131 85.37863301 58.5324707 90.01968384 C58.49245163 98.20919845 58.43608649 106.39855164 58.37646484 114.58794403 C58.35031691 118.21410002 58.32562596 121.84026551 58.30078125 125.46643066 C58.22828313 135.9327897 58.15356977 146.39913331 58.07910156 156.86547852 C57.91410156 180.35735352 57.74910156 203.84922852 57.57910156 228.05297852 C-17.33089844 228.05297852 -92.24089844 228.05297852 -169.42089844 228.05297852 C-169.42089844 153.14297852 -169.42089844 78.23297852 -169.42089844 1.05297852 C-143.18589844 0.88797852 -116.95089844 0.72297852 -89.92089844 0.55297852 C-77.56233398 0.47466797 -77.56233398 0.47466797 -64.95410156 0.39477539 C-54.77929688 0.33129883 -54.77929688 0.33129883 -49.99401855 0.30163574 C-46.70007084 0.28116646 -43.40612603 0.26028541 -40.11218262 0.23913574 C-31.28953591 0.18264198 -22.46689445 0.12889302 -13.64417267 0.08544636 C-9.09606151 0.06285396 -4.54805299 0.03258881 0 0 Z " fill="#464B4E" transform="translate(425.4208984375,56.947021484375)"/>
<path d="M0 0 C16.17346323 16.17346323 21.93057502 50.21493011 26 72 C26.24339111 73.2075293 26.24339111 73.2075293 26.49169922 74.43945312 C31.96455505 102.43065384 31.8459259 136.08872396 26 164 C25.70198486 165.46228027 25.70198486 165.46228027 25.39794922 166.95410156 C15.27732806 215.3359774 -6.6391877 259.32428269 -41 295 C-41.63212402 295.65935547 -42.26424805 296.31871094 -42.91552734 296.99804688 C-52.05997479 306.48630305 -61.35734009 315.2262044 -72 323 C-73.15105017 323.85806152 -74.30209177 324.71613451 -75.453125 325.57421875 C-83.64275981 331.61177396 -92.14538276 336.99457302 -101 342 C-101.70721191 342.4021875 -102.41442383 342.804375 -103.14306641 343.21875 C-129.42119478 358.01356166 -158.25398042 367.32475471 -188 372 C-188.72703125 372.11714355 -189.4540625 372.23428711 -190.203125 372.35498047 C-202.6028612 374.28669863 -214.28111297 374 -227 374 C-227 299.09 -227 224.18 -227 147 C-152.09 147 -77.18 147 0 147 C0 98.49 0 49.98 0 0 Z " fill="#4184F6" transform="translate(483,138)"/>
<path d="M0 0 C74.91 0 149.82 0 227 0 C227 74.91 227 149.82 227 227 C201.43912127 227 201.43912127 227 193.5625 225.8125 C192.62116211 225.6779541 191.67982422 225.5434082 190.70996094 225.40478516 C142.79270303 218.23549765 97.78062642 198.72769691 61 167 C59.88238281 166.04867187 59.88238281 166.04867187 58.7421875 165.078125 C45.23720167 153.26698485 32.56581257 140.51639772 22 126 C21.14350934 124.85005169 20.28673567 123.70031411 19.4296875 122.55078125 C13.38945422 114.35520727 8.12335883 105.79038458 3 97 C2.01 95.35 1.02 93.7 0 92 C0 61.64 0 31.28 0 0 Z " fill="#676B70" transform="translate(29,285)"/>
<path d="M0 0 C7.87530173 6.75025862 7.87530173 6.75025862 10.60400391 9.47702026 C11.22615784 10.09635437 11.84831177 10.71568848 12.48931885 11.35379028 C13.14510925 12.01160492 13.80089966 12.66941956 14.4765625 13.34716797 C15.18810486 14.05695801 15.89964722 14.76674805 16.63275146 15.49804688 C18.96600926 17.82693151 21.29562277 20.15942196 23.625 22.4921875 C25.25717827 24.12369135 26.88950489 25.7550468 28.52197266 27.38626099 C31.9361983 30.79901573 35.3486176 34.2135637 38.75976562 37.62939453 C43.11726076 41.99258202 47.47922408 46.3512705 51.84255981 50.70861626 C55.21252877 54.07495932 58.58009704 57.44369585 61.94696045 60.81314468 C63.55367783 62.42052596 65.16112955 64.02717355 66.76934814 65.63305283 C69.02314983 67.88429511 71.27368755 70.13875255 73.5234375 72.39404297 C74.17922791 73.04780914 74.83501831 73.70157532 75.51068115 74.37515259 C79.33027024 78.21205342 82.96283257 82.16185075 86.49263096 86.26734352 C88.4455548 88.51214626 90.50988808 90.62295459 92.62109375 92.71875 C93.41064453 93.50507813 94.20019531 94.29140625 95.01367188 95.1015625 C95.81353516 95.89304687 96.61339844 96.68453125 97.4375 97.5 C98.67790039 98.73363281 98.67790039 98.73363281 99.94335938 99.9921875 C101.95994959 101.99712113 103.97885236 103.99966253 106 106 C102.72350942 109.96848539 99.36596719 113.68869195 95.66015625 117.26171875 C94.90798828 117.98810547 94.15582031 118.71449219 93.38085938 119.46289062 C91.81517792 120.96525893 90.24204232 122.45989181 88.66210938 123.94726562 C87.91896484 124.66978516 87.17582031 125.39230469 86.41015625 126.13671875 C85.39127319 127.10677856 85.39127319 127.10677856 84.35180664 128.09643555 C82.77152277 129.89576791 82.77152277 129.89576791 83.14404297 132.0847168 C84.47920562 135.072267 86.69779443 136.89665579 89.0625 139.125 C90.74327151 140.7138359 92.39832072 142.33146296 94 144 C94 144.66 94 145.32 94 146 C99.72084676 141.12291327 105.13756646 136.0170697 110.4375 130.6875 C111.15615234 129.97271484 111.87480469 129.25792969 112.61523438 128.52148438 C113.29779297 127.83763672 113.98035156 127.15378906 114.68359375 126.44921875 C115.60483032 125.52629028 115.60483032 125.52629028 116.54467773 124.5847168 C118.09170925 123.04624733 118.09170925 123.04624733 119 121 C122.75310882 122.55765927 125.09417913 124.8779944 127.921875 127.76171875 C128.38555481 128.23060013 128.84923462 128.69948151 129.32696533 129.18257141 C130.80617025 130.67951598 132.27852701 132.18295749 133.75 133.6875 C135.20797061 135.17337784 136.66747816 136.65765691 138.13018799 138.13887024 C139.46876681 139.49508167 140.80241101 140.85615843 142.13574219 142.2175293 C144.2827844 144.30326405 146.43645427 146.26038415 148.70343018 148.20640564 C152.83598382 151.81023392 156.73929997 155.59792406 160.609375 159.47998047 C161.6791433 160.54712029 161.6791433 160.54712029 162.77052307 161.63581848 C165.09951721 163.96045247 167.42488357 166.2886755 169.75 168.6171875 C171.37509808 170.24161139 173.00034453 171.86588685 174.62573242 173.49002075 C178.0162753 176.87909503 181.40501669 180.26995755 184.79248047 183.66210938 C189.14501351 188.02037118 193.5020634 192.37408552 197.86044312 196.72649956 C201.20952568 200.07198101 204.55623829 203.41982507 207.90222168 206.76840591 C209.50914002 208.37599312 211.11680644 209.98283291 212.72521973 211.58892441 C214.96116077 213.82234289 217.19390031 216.05891197 219.42578125 218.29638672 C220.0958168 218.96439804 220.76585236 219.63240936 221.45619202 220.32066345 C226 224.88573133 226 224.88573133 226 226 C151.42 226 76.84 226 0 226 C0 151.42 0 76.84 0 0 Z " fill="#3B3F41" transform="translate(256,58)"/>
<path d="M0 0 C1.51802216 0.00081573 1.51802216 0.00081573 3.06671143 0.00164795 C19.59530572 0.04238044 35.52913999 0.94575778 51.75 4.375 C52.79188477 4.59462402 53.83376953 4.81424805 54.90722656 5.04052734 C92.98846159 13.3469159 132.54056061 29.94741198 161.75 56.375 C162.08 57.035 162.41 57.695 162.75 58.375 C55.83 58.375 -51.09 58.375 -161.25 58.375 C-156.74452318 52.74315397 -156.74452318 52.74315397 -153.66796875 50.578125 C-152.99121094 50.09899658 -152.31445312 49.61986816 -151.6171875 49.1262207 C-150.89789063 48.63081787 -150.17859375 48.13541504 -149.4375 47.625 C-148.30634766 46.83838989 -148.30634766 46.83838989 -147.15234375 46.03588867 C-140.04021617 41.14108023 -132.76074314 36.62811809 -125.25 32.375 C-124.62254883 32.01341797 -123.99509766 31.65183594 -123.34863281 31.27929688 C-97.2591024 16.34465402 -67.92037445 6.86209097 -38.25 2.375 C-37.12754883 2.19839844 -36.00509766 2.02179687 -34.84863281 1.83984375 C-23.23552257 0.1829414 -11.71820055 -0.02373513 0 0 Z " fill="#00BFD8" transform="translate(255.25,-0.375)"/>
<path d="M0 0 C16.17346323 16.17346323 21.93057502 50.21493011 26 72 C26.16226074 72.80501953 26.32452148 73.61003906 26.49169922 74.43945312 C31.96455505 102.43065384 31.8459259 136.08872396 26 164 C25.80132324 164.97485352 25.60264648 165.94970703 25.39794922 166.95410156 C20.5843935 189.96542184 14.35422349 217.86103535 0 237 C0 158.79 0 80.58 0 0 Z " fill="#00BFD8" transform="translate(483,138)"/>
<path d="M0 0 C0.33 0 0.66 0 1 0 C1 78.21 1 156.42 1 237 C-13.9006789 217.13242813 -20.51203634 188.02565531 -25 164 C-25.16226074 163.19498047 -25.32452148 162.38996094 -25.49169922 161.56054688 C-30.96455505 133.56934616 -30.8459259 99.91127604 -25 72 C-24.80132324 71.02514648 -24.60264648 70.05029297 -24.39794922 69.04589844 C-19.58696759 46.04688364 -13.20388156 19.80582234 0 0 Z " fill="#00BFD7" transform="translate(28,138)"/>
<path d="M0 0 C3.76603869 1.56282982 6.13639151 3.9063475 8.984375 6.7890625 C9.44483215 7.25234955 9.90528931 7.7156366 10.37969971 8.19296265 C11.84125078 9.66565898 13.29567168 11.14517403 14.75 12.625 C15.74302611 13.62806322 16.73651089 14.63067257 17.73046875 15.6328125 C20.15897941 18.08330835 22.58114675 20.5399667 25 23 C28.76603869 21.43717018 31.13639151 19.0936525 33.984375 16.2109375 C34.44483215 15.74765045 34.90528931 15.2843634 35.37969971 14.80703735 C36.84125078 13.33434102 38.29567168 11.85482597 39.75 10.375 C40.74302611 9.37193678 41.73651089 8.36932743 42.73046875 7.3671875 C45.15897941 4.91669165 47.58114675 2.4600333 50 0 C54.00374431 1.83692389 56.71957934 4.49117916 59.75 7.625 C60.25660156 8.140625 60.76320313 8.65625 61.28515625 9.1875 C62.52803902 10.45383339 63.76465276 11.7263144 65 13 C63.43717018 16.76603869 61.0936525 19.13639151 58.2109375 21.984375 C57.74765045 22.44483215 57.2843634 22.90528931 56.80703735 23.37969971 C55.33434102 24.84125078 53.85482597 26.29567168 52.375 27.75 C51.37193678 28.74302611 50.36932743 29.73651089 49.3671875 30.73046875 C46.91669165 33.15897941 44.4600333 35.58114675 42 38 C43.56282982 41.76603869 45.9063475 44.13639151 48.7890625 46.984375 C49.48399307 47.67506073 49.48399307 47.67506073 50.19296265 48.37969971 C51.66565898 49.84125078 53.14517403 51.29567168 54.625 52.75 C55.62806322 53.74302611 56.63067257 54.73651089 57.6328125 55.73046875 C60.08330835 58.15897941 62.5399667 60.58114675 65 63 C63.16307611 67.00374431 60.50882084 69.71957934 57.375 72.75 C56.859375 73.25660156 56.34375 73.76320313 55.8125 74.28515625 C54.54616661 75.52803902 53.2736856 76.76465276 52 78 C46.21958252 73.21006905 40.95039345 68.03617818 35.6875 62.6875 C34.0895518 61.064127 32.48940287 59.44291636 30.88671875 57.82421875 C30.18764404 57.11354248 29.48856934 56.40286621 28.76831055 55.6706543 C27.09174765 53.92538572 27.09174765 53.92538572 25 53 C24.76732422 53.55719727 24.53464844 54.11439453 24.29492188 54.68847656 C22.66430607 57.59923645 20.63760806 59.62181133 18.28125 61.984375 C16.88326172 63.38623047 16.88326172 63.38623047 15.45703125 64.81640625 C14.97186035 65.2973877 14.48668945 65.77836914 13.98681641 66.27392578 C12.49793661 67.75204848 11.02008349 69.24059911 9.54296875 70.73046875 C8.61097656 71.65988281 7.67898438 72.58929688 6.71875 73.546875 C5.86216797 74.40120117 5.00558594 75.25552734 4.12304688 76.13574219 C2 78 2 78 0 78 C-1.55078125 76.42578125 -1.55078125 76.42578125 -3.3125 74.3125 C-5.43655718 71.78767731 -7.54086947 69.44737434 -10 67.25 C-12 65 -12 65 -11.93188477 63.18457031 C-10.59153429 60.0424545 -8.52106803 58.18642115 -6.08984375 55.796875 C-5.60294571 55.3142218 -5.11604767 54.8315686 -4.61439514 54.33428955 C-3.0623455 52.7989915 -1.50017864 51.27447075 0.0625 49.75 C1.11852357 48.7090278 2.17387038 47.6673686 3.22851562 46.625 C5.81121415 44.07532367 8.40308882 41.53520804 11 39 C6.18132753 33.19108254 0.98743592 27.86934448 -4.375 22.5625 C-5.20644531 21.73556641 -6.03789062 20.90863281 -6.89453125 20.05664062 C-8.9274104 18.03544469 -10.96259963 16.01663665 -13 14 C-9.81968878 10.2341894 -6.64858175 6.51561011 -3.125 3.0625 C-2.23167969 2.18271484 -2.23167969 2.18271484 -1.3203125 1.28515625 C-0.66675781 0.64900391 -0.66675781 0.64900391 0 0 Z " fill="#EEEEEE" transform="translate(350,126)"/>
<path d="M0 0 C6.27 0 12.54 0 19 0 C19 11.55 19 23.1 19 35 C30.88 35 42.76 35 55 35 C55 41.6 55 48.2 55 55 C43.45 55 31.9 55 20 55 C20 66.55 20 78.1 20 90 C13.07 90 6.14 90 -1 90 C-1 78.45 -1 66.9 -1 55 C-12.55 55 -24.1 55 -36 55 C-36 48.4 -36 41.8 -36 35 C-24.12 35 -12.24 35 0 35 C0 23.45 0 11.9 0 0 Z " fill="#EFEFEF" transform="translate(130,351)"/>
<path d="M0 0 C30.03 0 60.06 0 91 0 C91 6.6 91 13.2 91 20 C60.97 20 30.94 20 0 20 C0 13.4 0 6.8 0 0 Z " fill="#F1F1F1" transform="translate(94,158)"/>
<path d="M0 0 C31.02 0 62.04 0 94 0 C94 6.27 94 12.54 94 19 C62.98 19 31.96 19 0 19 C0 12.73 0 6.46 0 0 Z " fill="#E9ECF2" transform="translate(328,374)"/>
<path d="M0 0 C31.02 0 62.04 0 94 0 C94 5.94 94 11.88 94 18 C62.98 18 31.96 18 0 18 C0 12.06 0 6.12 0 0 Z " fill="#EFF0F2" transform="translate(328,416)"/>
</svg>
